<svg xmlns="http://www.w3.org/2000/svg" xmlns:xlink="http://www.w3.org/1999/xlink" width="559" zoomAndPan="magnify" viewBox="0 0 419.25 595.499986" height="794" preserveAspectRatio="xMidYMid meet" version="1.0"><defs><filter x="0%" y="0%" width="100%" height="100%" id="e377412319"><feColorMatrix values="0 0 0 0 1 0 0 0 0 1 0 0 0 0 1 0 0 0 1 0" color-interpolation-filters="sRGB"/></filter><g/><mask id="9d491e0407"><g filter="url(#e377412319)"><rect x="-41.925" width="503.1" fill="#000000" y="-59.549999" height="714.599983" fill-opacity="0.4556"/></g></mask><clipPath id="ec633cead5"><path d="M 0.363281 0.0507812 L 51.207031 0.0507812 L 51.207031 8.957031 L 0.363281 8.957031 Z M 0.363281 0.0507812 " clip-rule="nonzero"/></clipPath><clipPath id="e0ba0f398f"><rect x="0" width="52" y="0" height="10"/></clipPath><mask id="6f0f1df403"><g filter="url(#e377412319)"><rect x="-41.925" width="503.1" fill="#000000" y="-59.549999" height="714.599983" fill-opacity="0.4556"/></g></mask><clipPath id="64fbc2f326"><path d="M 0.480469 1 L 51.328125 1 L 51.328125 9.691406 L 0.480469 9.691406 Z M 0.480469 1 " clip-rule="nonzero"/></clipPath><clipPath id="aeb955f631"><rect x="0" width="52" y="0" height="10"/></clipPath><mask id="3671a93040"><g filter="url(#e377412319)"><rect x="-41.925" width="503.1" fill="#000000" y="-59.549999" height="714.599983" fill-opacity="0.4556"/></g></mask><clipPath id="470965b98d"><path d="M 0.480469 0.0742188 L 51.328125 0.0742188 L 51.328125 8.996094 L 0.480469 8.996094 Z M 0.480469 0.0742188 " clip-rule="nonzero"/></clipPath><clipPath id="89630dece1"><rect x="0" width="52" y="0" height="10"/></clipPath><mask id="2b39c9c5d3"><g filter="url(#e377412319)"><rect x="-41.925" width="503.1" fill="#000000" y="-59.549999" height="714.599983" fill-opacity="0.4556"/></g></mask><clipPath id="097f897b2f"><path d="M 0.480469 0.710938 L 59.207031 0.710938 L 59.207031 10.03125 L 0.480469 10.03125 Z M 0.480469 0.710938 " clip-rule="nonzero"/></clipPath><clipPath id="b3e583e679"><rect x="0" width="60" y="0" height="11"/></clipPath><mask id="8eabe89bd4"><g filter="url(#e377412319)"><rect x="-41.925" width="503.1" fill="#000000" y="-59.549999" height="714.599983" fill-opacity="0.4556"/></g></mask><clipPath id="7e3978bec3"><path d="M 0.476562 0.566406 L 8.359375 0.566406 L 8.359375 54.855469 L 0.476562 54.855469 Z M 0.476562 0.566406 " clip-rule="nonzero"/></clipPath><clipPath id="1d6a799f70"><rect x="0" width="9" y="0" height="56"/></clipPath><mask id="bdabcb39c3"><g filter="url(#e377412319)"><rect x="-41.925" width="503.1" fill="#000000" y="-59.549999" height="714.599983" fill-opacity="0.4556"/></g></mask><clipPath id="4af466ddb4"><path d="M 1.042969 0.566406 L 11.898438 0.566406 L 11.898438 54.855469 L 1.042969 54.855469 Z M 1.042969 0.566406 " clip-rule="nonzero"/></clipPath><clipPath id="f02fe765b6"><rect x="0" width="12" y="0" height="56"/></clipPath><mask id="29dbd732ca"><g filter="url(#e377412319)"><rect x="-41.925" width="503.1" fill="#000000" y="-59.549999" height="714.599983" fill-opacity="0.4556"/></g></mask><clipPath id="4cf03ab9eb"><path d="M 0.242188 0.722656 L 27.226562 0.722656 L 27.226562 9.515625 L 0.242188 9.515625 Z M 0.242188 0.722656 " clip-rule="nonzero"/></clipPath><clipPath id="bb77f6924f"><rect x="0" width="28" y="0" height="10"/></clipPath><mask id="e052b0bbe0"><g filter="url(#e377412319)"><rect x="-41.925" width="503.1" fill="#000000" y="-59.549999" height="714.599983" fill-opacity="0.4556"/></g></mask><clipPath id="ff5ee45614"><path d="M 1 0.292969 L 27.109375 0.292969 L 27.109375 9.082031 L 1 9.082031 Z M 1 0.292969 " clip-rule="nonzero"/></clipPath><clipPath id="cd8ea0a5a3"><rect x="0" width="28" y="0" height="10"/></clipPath><clipPath id="bd66599a01"><path d="M 332.363281 372.410156 L 383.207031 372.410156 L 383.207031 381.316406 L 332.363281 381.316406 Z M 332.363281 372.410156 " clip-rule="nonzero"/></clipPath><clipPath id="962ed79c05"><path d="M 324.480469 364.359375 L 375.328125 364.359375 L 375.328125 373.054688 L 324.480469 373.054688 Z M 324.480469 364.359375 " clip-rule="nonzero"/></clipPath><clipPath id="e10e3ad864"><path d="M 324.480469 296.433594 L 375.328125 296.433594 L 375.328125 305.359375 L 324.480469 305.359375 Z M 324.480469 296.433594 " clip-rule="nonzero"/></clipPath><clipPath id="0f52af3c62"><path d="M 324.480469 304.074219 L 383.207031 304.074219 L 383.207031 313.390625 L 324.480469 313.390625 Z M 324.480469 304.074219 " clip-rule="nonzero"/></clipPath><clipPath id="01fc5e0c86"><path d="M 324.476562 310.929688 L 332.359375 310.929688 L 332.359375 365.21875 L 324.476562 365.21875 Z M 324.476562 310.929688 " clip-rule="nonzero"/></clipPath><clipPath id="6e226a107c"><path d="M 330.042969 310.929688 L 340.898438 310.929688 L 340.898438 365.21875 L 330.042969 365.21875 Z M 330.042969 310.929688 " clip-rule="nonzero"/></clipPath><clipPath id="785f933d0a"><path d="M 340.242188 330.085938 L 367.226562 330.085938 L 367.226562 338.875 L 340.242188 338.875 Z M 340.242188 330.085938 " clip-rule="nonzero"/></clipPath><clipPath id="5157876ad6"><path d="M 349 338.652344 L 375.109375 338.652344 L 375.109375 347.445312 L 349 347.445312 Z M 349 338.652344 " clip-rule="nonzero"/></clipPath><mask id="19743c0f88"><g filter="url(#e377412319)"><rect x="-41.925" width="503.1" fill="#000000" y="-59.549999" height="714.599983" fill-opacity="0.46"/></g></mask><clipPath id="d8c8537b7a"><path d="M 0.21875 0.339844 L 85 0.339844 L 85 86 L 0.21875 86 Z M 0.21875 0.339844 " clip-rule="nonzero"/></clipPath><clipPath id="4fefe0988f"><path d="M 96 0.339844 L 182 0.339844 L 182 86 L 96 86 Z M 96 0.339844 " clip-rule="nonzero"/></clipPath><clipPath id="d92b02c0f6"><path d="M 193 0.339844 L 278 0.339844 L 278 86 L 193 86 Z M 193 0.339844 " clip-rule="nonzero"/></clipPath><clipPath id="0278bcf4d8"><rect x="0" width="291" y="0" height="98"/></clipPath><mask id="932c873115"><g filter="url(#e377412319)"><rect x="-41.925" width="503.1" fill="#000000" y="-59.549999" height="714.599983" fill-opacity="0.46"/></g></mask><clipPath id="aa36c1d734"><path d="M 0.585938 1 L 86 1 L 86 87 L 0.585938 87 Z M 0.585938 1 " clip-rule="nonzero"/></clipPath><clipPath id="af4c5c3bb0"><rect x="0" width="194" y="0" height="99"/></clipPath></defs><g mask="url(#9d491e0407)"><g transform="matrix(1, 0, 0, 1, 332, 380)"><g clip-path="url(#e0ba0f398f)"><g clip-path="url(#ec633cead5)"><path fill="#8a8a8a" d="M 0.363281 0.0507812 L 51.191406 0.0507812 L 51.191406 8.957031 L 0.363281 8.957031 Z M 0.363281 0.0507812 " fill-opacity="1" fill-rule="nonzero"/></g></g></g></g><g mask="url(#6f0f1df403)"><g transform="matrix(1, 0, 0, 1, 324, 371)"><g clip-path="url(#aeb955f631)"><g clip-path="url(#64fbc2f326)"><path fill="#8a8a8a" d="M 0.480469 1 L 51.3125 1 L 51.3125 9.691406 L 0.480469 9.691406 Z M 0.480469 1 " fill-opacity="1" fill-rule="nonzero"/></g></g></g></g><g mask="url(#3671a93040)"><g transform="matrix(1, 0, 0, 1, 324, 304)"><g clip-path="url(#89630dece1)"><g clip-path="url(#470965b98d)"><path fill="#8a8a8a" d="M 0.480469 0.0742188 L 51.335938 0.0742188 L 51.335938 8.996094 L 0.480469 8.996094 Z M 0.480469 0.0742188 " fill-opacity="1" fill-rule="nonzero"/></g></g></g></g><g mask="url(#2b39c9c5d3)"><g transform="matrix(1, 0, 0, 1, 324, 311)"><g clip-path="url(#b3e583e679)"><g clip-path="url(#097f897b2f)"><path fill="#8a8a8a" d="M 0.480469 0.710938 L 59.195312 0.710938 L 59.195312 10.03125 L 0.480469 10.03125 Z M 0.480469 0.710938 " fill-opacity="1" fill-rule="nonzero"/></g></g></g></g><g mask="url(#8eabe89bd4)"><g transform="matrix(1, 0, 0, 1, 324, 318)"><g clip-path="url(#1d6a799f70)"><g clip-path="url(#7e3978bec3)"><path fill="#8a8a8a" d="M 8.359375 0.566406 L 8.359375 54.84375 L 0.476562 54.84375 L 0.476562 0.566406 Z M 8.359375 0.566406 " fill-opacity="1" fill-rule="nonzero"/></g></g></g></g><g mask="url(#bdabcb39c3)"><g transform="matrix(1, 0, 0, 1, 329, 318)"><g clip-path="url(#f02fe765b6)"><g clip-path="url(#4af466ddb4)"><path fill="#8a8a8a" d="M 11.898438 0.566406 L 11.898438 54.878906 L 1.042969 54.878906 L 1.042969 0.566406 Z M 11.898438 0.566406 " fill-opacity="1" fill-rule="nonzero"/></g></g></g></g><g mask="url(#29dbd732ca)"><g transform="matrix(1, 0, 0, 1, 340, 337)"><g clip-path="url(#bb77f6924f)"><g clip-path="url(#4cf03ab9eb)"><path fill="#8a8a8a" d="M 0.242188 0.722656 L 27.234375 0.722656 L 27.234375 9.515625 L 0.242188 9.515625 Z M 0.242188 0.722656 " fill-opacity="1" fill-rule="nonzero"/></g></g></g></g><g mask="url(#e052b0bbe0)"><g transform="matrix(1, 0, 0, 1, 348, 346)"><g clip-path="url(#cd8ea0a5a3)"><g clip-path="url(#ff5ee45614)"><path fill="#8a8a8a" d="M 1 0.292969 L 27.097656 0.292969 L 27.097656 9.082031 L 1 9.082031 Z M 1 0.292969 " fill-opacity="1" fill-rule="nonzero"/></g></g></g></g><g clip-path="url(#bd66599a01)"><path fill="#fadb1f" d="M 332.363281 372.410156 L 383.191406 372.410156 L 383.191406 381.316406 L 332.363281 381.316406 Z M 332.363281 372.410156 " fill-opacity="1" fill-rule="nonzero"/></g><g clip-path="url(#962ed79c05)"><path fill="#fadb1f" d="M 324.480469 364.359375 L 375.3125 364.359375 L 375.3125 373.054688 L 324.480469 373.054688 Z M 324.480469 364.359375 " fill-opacity="1" fill-rule="nonzero"/></g><g clip-path="url(#e10e3ad864)"><path fill="#fadb1f" d="M 324.480469 296.433594 L 375.335938 296.433594 L 375.335938 305.359375 L 324.480469 305.359375 Z M 324.480469 296.433594 " fill-opacity="1" fill-rule="nonzero"/></g><g clip-path="url(#0f52af3c62)"><path fill="#fadb1f" d="M 324.480469 304.074219 L 383.195312 304.074219 L 383.195312 313.390625 L 324.480469 313.390625 Z M 324.480469 304.074219 " fill-opacity="1" fill-rule="nonzero"/></g><g clip-path="url(#01fc5e0c86)"><path fill="#fadb1f" d="M 332.359375 310.929688 L 332.359375 365.203125 L 324.476562 365.203125 L 324.476562 310.929688 Z M 332.359375 310.929688 " fill-opacity="1" fill-rule="nonzero"/></g><g clip-path="url(#6e226a107c)"><path fill="#fadb1f" d="M 340.898438 310.929688 L 340.898438 365.238281 L 330.042969 365.238281 L 330.042969 310.929688 Z M 340.898438 310.929688 " fill-opacity="1" fill-rule="nonzero"/></g><g clip-path="url(#785f933d0a)"><path fill="#fadb1f" d="M 340.242188 330.085938 L 367.234375 330.085938 L 367.234375 338.875 L 340.242188 338.875 Z M 340.242188 330.085938 " fill-opacity="1" fill-rule="nonzero"/></g><g clip-path="url(#5157876ad6)"><path fill="#fadb1f" d="M 349 338.652344 L 375.097656 338.652344 L 375.097656 347.445312 L 349 347.445312 Z M 349 338.652344 " fill-opacity="1" fill-rule="nonzero"/></g><g mask="url(#19743c0f88)"><g transform="matrix(1, 0, 0, 1, 35, 303)"><g clip-path="url(#0278bcf4d8)"><g clip-path="url(#d8c8537b7a)"><g fill="#8a8a8a" fill-opacity="1"><g transform="translate(0.293722, 97.258654)"><g><path d="M 24.09375 -12.046875 L 24.09375 -24.09375 L 12.046875 -24.09375 L 12.046875 -36.140625 L 0 -36.140625 L 0 -72.296875 L 12.046875 -72.296875 L 12.046875 -84.34375 L 24.09375 -84.34375 L 24.09375 -96.390625 L 72.296875 -96.390625 L 72.296875 -84.34375 L 84.34375 -84.34375 L 84.34375 -72.296875 L 60.25 -72.296875 L 60.25 -84.34375 L 36.140625 -84.34375 L 36.140625 -72.296875 L 24.09375 -72.296875 L 24.09375 -36.140625 L 36.140625 -36.140625 L 36.140625 -24.09375 L 60.25 -24.09375 L 60.25 -36.140625 L 84.34375 -36.140625 L 84.34375 -24.09375 L 72.296875 -24.09375 L 72.296875 -12.046875 Z M 24.09375 -12.046875 "/></g></g></g></g><g clip-path="url(#4fefe0988f)"><g fill="#8a8a8a" fill-opacity="1"><g transform="translate(96.682335, 97.258654)"><g><path d="M 12.046875 -12.046875 L 12.046875 -24.09375 L 0 -24.09375 L 0 -84.34375 L 12.046875 -84.34375 L 12.046875 -96.390625 L 72.296875 -96.390625 L 72.296875 -84.34375 L 84.34375 -84.34375 L 84.34375 -24.09375 L 72.296875 -24.09375 L 72.296875 -12.046875 Z M 24.09375 -24.09375 L 60.25 -24.09375 L 60.25 -84.34375 L 24.09375 -84.34375 Z M 24.09375 -24.09375 "/></g></g></g></g><g clip-path="url(#d92b02c0f6)"><g fill="#8a8a8a" fill-opacity="1"><g transform="translate(193.070949, 97.258654)"><g><path d="M 0 -12.046875 L 0 -96.390625 L 60.25 -96.390625 L 60.25 -84.34375 L 72.296875 -84.34375 L 72.296875 -72.296875 L 84.34375 -72.296875 L 84.34375 -36.140625 L 72.296875 -36.140625 L 72.296875 -24.09375 L 60.25 -24.09375 L 60.25 -12.046875 Z M 24.09375 -24.09375 L 48.203125 -24.09375 L 48.203125 -36.140625 L 60.25 -36.140625 L 60.25 -72.296875 L 48.203125 -72.296875 L 48.203125 -84.34375 L 24.09375 -84.34375 Z M 24.09375 -24.09375 "/></g></g></g></g></g></g></g><g fill="#fadb1f" fill-opacity="1"><g transform="translate(35.293722, 392.395508)"><g><path d="M 24.09375 -12.046875 L 24.09375 -24.09375 L 12.046875 -24.09375 L 12.046875 -36.140625 L 0 -36.140625 L 0 -72.296875 L 12.046875 -72.296875 L 12.046875 -84.34375 L 24.09375 -84.34375 L 24.09375 -96.390625 L 72.296875 -96.390625 L 72.296875 -84.34375 L 84.34375 -84.34375 L 84.34375 -72.296875 L 60.25 -72.296875 L 60.25 -84.34375 L 36.140625 -84.34375 L 36.140625 -72.296875 L 24.09375 -72.296875 L 24.09375 -36.140625 L 36.140625 -36.140625 L 36.140625 -24.09375 L 60.25 -24.09375 L 60.25 -36.140625 L 84.34375 -36.140625 L 84.34375 -24.09375 L 72.296875 -24.09375 L 72.296875 -12.046875 Z M 24.09375 -12.046875 "/></g></g></g><g fill="#fadb1f" fill-opacity="1"><g transform="translate(131.682329, 392.395508)"><g><path d="M 12.046875 -12.046875 L 12.046875 -24.09375 L 0 -24.09375 L 0 -84.34375 L 12.046875 -84.34375 L 12.046875 -96.390625 L 72.296875 -96.390625 L 72.296875 -84.34375 L 84.34375 -84.34375 L 84.34375 -24.09375 L 72.296875 -24.09375 L 72.296875 -12.046875 Z M 24.09375 -24.09375 L 60.25 -24.09375 L 60.25 -84.34375 L 24.09375 -84.34375 Z M 24.09375 -24.09375 "/></g></g></g><g fill="#fadb1f" fill-opacity="1"><g transform="translate(228.070936, 392.395508)"><g><path d="M 0 -12.046875 L 0 -96.390625 L 60.25 -96.390625 L 60.25 -84.34375 L 72.296875 -84.34375 L 72.296875 -72.296875 L 84.34375 -72.296875 L 84.34375 -36.140625 L 72.296875 -36.140625 L 72.296875 -24.09375 L 60.25 -24.09375 L 60.25 -12.046875 Z M 24.09375 -24.09375 L 48.203125 -24.09375 L 48.203125 -36.140625 L 60.25 -36.140625 L 60.25 -72.296875 L 48.203125 -72.296875 L 48.203125 -84.34375 L 24.09375 -84.34375 Z M 24.09375 -24.09375 "/></g></g></g><g mask="url(#932c873115)"><g transform="matrix(1, 0, 0, 1, 118, 199)"><g clip-path="url(#af4c5c3bb0)"><g clip-path="url(#aa36c1d734)"><g fill="#8a8a8a" fill-opacity="1"><g transform="translate(0.701694, 98.080635)"><g><path d="M 12.046875 -12.046875 L 12.046875 -24.09375 L 0 -24.09375 L 0 -96.40625 L 24.09375 -96.40625 L 24.09375 -24.09375 L 60.25 -24.09375 L 60.25 -96.40625 L 84.359375 -96.40625 L 84.359375 -24.09375 L 72.296875 -24.09375 L 72.296875 -12.046875 Z M 12.046875 -12.046875 "/></g></g></g></g><g fill="#8a8a8a" fill-opacity="1"><g transform="translate(97.092446, 98.080635)"><g><path d="M 0 -12.046875 L 0 -72.296875 L 12.046875 -72.296875 L 12.046875 -84.359375 L 24.09375 -84.359375 L 24.09375 -96.40625 L 60.25 -96.40625 L 60.25 -84.359375 L 72.296875 -84.359375 L 72.296875 -72.296875 L 84.359375 -72.296875 L 84.359375 -12.046875 L 60.25 -12.046875 L 60.25 -36.15625 L 24.09375 -36.15625 L 24.09375 -12.046875 Z M 24.09375 -48.203125 L 60.25 -48.203125 L 60.25 -72.296875 L 48.203125 -72.296875 L 48.203125 -84.359375 L 36.15625 -84.359375 L 36.15625 -72.296875 L 24.09375 -72.296875 Z M 24.09375 -48.203125 "/></g></g></g></g></g></g><g fill="#2446f9" fill-opacity="1"><g transform="translate(118.701694, 289.442677)"><g><path d="M 12.046875 -12.046875 L 12.046875 -24.09375 L 0 -24.09375 L 0 -96.40625 L 24.09375 -96.40625 L 24.09375 -24.09375 L 60.25 -24.09375 L 60.25 -96.40625 L 84.359375 -96.40625 L 84.359375 -24.09375 L 72.296875 -24.09375 L 72.296875 -12.046875 Z M 12.046875 -12.046875 "/></g></g></g><g fill="#2446f9" fill-opacity="1"><g transform="translate(215.092435, 289.442677)"><g><path d="M 0 -12.046875 L 0 -72.296875 L 12.046875 -72.296875 L 12.046875 -84.359375 L 24.09375 -84.359375 L 24.09375 -96.40625 L 60.25 -96.40625 L 60.25 -84.359375 L 72.296875 -84.359375 L 72.296875 -72.296875 L 84.359375 -72.296875 L 84.359375 -12.046875 L 60.25 -12.046875 L 60.25 -36.15625 L 24.09375 -36.15625 L 24.09375 -12.046875 Z M 24.09375 -48.203125 L 60.25 -48.203125 L 60.25 -72.296875 L 48.203125 -72.296875 L 48.203125 -84.359375 L 36.15625 -84.359375 L 36.15625 -72.296875 L 24.09375 -72.296875 Z M 24.09375 -48.203125 "/></g></g></g></svg>
