<svg width="512px" height="512px" viewBox="0 0 490 395" fill="none" xmlns="http://www.w3.org/2000/svg">
	<g filter="url(#filter0_d_38_7)">
		<path
			d="M36.125 197.078H52.1875V213.17H36.125V197.078ZM20.0625 197.078H36.125V213.17H20.0625V197.078ZM20.0625 213.17H36.125V229.262H20.0625V213.17ZM36.125 213.17H52.1875V229.262H36.125V213.17ZM52.1875 213.17H68.2499V229.262H52.1875V213.17ZM52.1875 197.078H68.2499V213.17H52.1875V197.078ZM68.2499 197.078H84.3124V213.17H68.2499V197.078ZM84.3124 197.078H100.375V213.17H84.3124V197.078ZM84.3124 213.17H100.375V229.262H84.3124V213.17ZM68.2499 213.17H84.3124V229.262H68.2499V213.17ZM84.3124 229.262H100.375V245.354H84.3124V229.262ZM100.375 213.17H116.437V229.262H100.375V213.17ZM100.375 229.262H116.437V245.354H100.375V229.262ZM100.375 309.723H116.437V325.815H100.375V309.723ZM100.375 325.815H116.437V341.907H100.375V325.815ZM84.3124 325.815H100.375V341.907H84.3124V325.815ZM84.3124 309.723H100.375V325.815H84.3124V309.723ZM68.2499 325.815H84.3124V341.907H68.2499V325.815ZM84.3124 341.907H100.375V357.999H84.3124V341.907ZM68.2499 341.907H84.3124V357.999H68.2499V341.907ZM52.1875 341.907H68.2499V357.999H52.1875V341.907ZM52.1875 325.815H68.2499V341.907H52.1875V325.815ZM36.125 341.907H52.1875V357.999H36.125V341.907ZM20.0625 341.907H36.125V357.999H20.0625V341.907ZM20.0625 325.815H36.125V341.907H20.0625V325.815ZM36.125 325.815H52.1875V341.907H36.125V325.815ZM36.125 309.723H52.1875V325.815H36.125V309.723ZM20.0625 309.723H36.125V325.815H20.0625V309.723ZM4 325.815H20.0625V341.907H4V325.815ZM4 309.723H20.0625V325.815H4V309.723ZM4 293.63H20.0625V309.723H4V293.63ZM4 277.538H20.0625V293.63H4V277.538ZM4 261.446H20.0625V277.538H4V261.446ZM4 245.354H20.0625V261.446H4V245.354ZM4 229.262H20.0625V245.354H4V229.262ZM20.0625 229.262H36.125V245.354H20.0625V229.262ZM4 213.17H20.0625V229.262H4V213.17ZM36.125 229.262H52.1875V245.354H36.125V229.262ZM20.0625 245.354H36.125V261.446H20.0625V245.354ZM20.0625 261.446H36.125V277.538H20.0625V261.446ZM20.0625 277.538H36.125V293.63H20.0625V277.538ZM20.0625 293.63H36.125V309.723H20.0625V293.63Z"
			fill="black" />
		<path
			d="M164.667 197.078H180.729V213.17H164.667V197.078ZM148.604 197.078H164.667V213.17H148.604V197.078ZM148.604 213.17H164.667V229.262H148.604V213.17ZM164.667 213.17H180.729V229.262H164.667V213.17ZM180.729 213.17H196.792V229.262H180.729V213.17ZM180.729 197.078H196.792V213.17H180.729V197.078ZM196.792 197.078H212.854V213.17H196.792V197.078ZM212.854 197.078H228.917V213.17H212.854V197.078ZM212.854 213.17H228.917V229.262H212.854V213.17ZM196.792 213.17H212.854V229.262H196.792V213.17ZM196.792 229.262H212.854V245.354H196.792V229.262ZM212.854 229.262H228.917V245.354H212.854V229.262ZM228.917 213.17H244.979V229.262H228.917V213.17ZM228.917 229.262H244.979V245.354H228.917V229.262ZM228.917 245.354H244.979V261.446H228.917V245.354ZM228.917 261.446H244.979V277.538H228.917V261.446ZM228.917 277.538H244.979V293.63H228.917V277.538ZM228.917 293.63H244.979V309.723H228.917V293.63ZM228.917 309.723H244.979V325.815H228.917V309.723ZM228.917 325.815H244.979V341.907H228.917V325.815ZM212.854 325.815H228.917V341.907H212.854V325.815ZM212.854 309.723H228.917V325.815H212.854V309.723ZM212.854 293.63H228.917V309.723H212.854V293.63ZM212.854 277.538H228.917V293.63H212.854V277.538ZM212.854 261.446H228.917V277.538H212.854V261.446ZM212.854 245.354H228.917V261.446H212.854V245.354ZM196.792 309.723H212.854V325.815H196.792V309.723ZM196.792 325.815H212.854V341.907H196.792V325.815ZM212.854 341.907H228.917V357.999H212.854V341.907ZM196.792 341.907H212.854V357.999H196.792V341.907ZM180.729 341.907H196.792V357.999H180.729V341.907ZM180.729 325.815H196.792V341.907H180.729V325.815ZM164.667 341.907H180.729V357.999H164.667V341.907ZM148.604 341.907H164.667V357.999H148.604V341.907ZM148.604 325.815H164.667V341.907H148.604V325.815ZM164.667 325.815H180.729V341.907H164.667V325.815ZM164.667 309.723H180.729V325.815H164.667V309.723ZM148.604 309.723H164.667V325.815H148.604V309.723ZM132.542 325.815H148.604V341.907H132.542V325.815ZM132.542 309.723H148.604V325.815H132.542V309.723ZM132.542 293.63H148.604V309.723H132.542V293.63ZM132.542 277.538H148.604V293.63H132.542V277.538ZM132.542 261.446H148.604V277.538H132.542V261.446ZM132.542 245.354H148.604V261.446H132.542V245.354ZM132.542 229.262H148.604V245.354H132.542V229.262ZM148.604 229.262H164.667V245.354H148.604V229.262ZM132.542 213.17H148.604V229.262H132.542V213.17ZM164.667 229.262H180.729V245.354H164.667V229.262ZM148.604 245.354H164.667V261.446H148.604V245.354ZM148.604 261.446H164.667V277.538H148.604V261.446ZM148.604 277.538H164.667V293.63H148.604V277.538ZM148.604 293.63H164.667V309.723H148.604V293.63Z"
			fill="black" />
		<path
			d="M293.208 197.078H309.271V213.17H293.208V197.078ZM277.146 197.078H293.208V213.17H277.146V197.078ZM277.146 213.17H293.208V229.262H277.146V213.17ZM293.208 213.17H309.271V229.262H293.208V213.17ZM309.271 213.17H325.333V229.262H309.271V213.17ZM309.271 197.078H325.333V213.17H309.271V197.078ZM325.333 197.078H341.396V213.17H325.333V197.078ZM341.396 197.078H357.458V213.17H341.396V197.078ZM341.396 213.17H357.458V229.262H341.396V213.17ZM325.333 213.17H341.396V229.262H325.333V213.17ZM325.333 229.262H341.396V245.354H325.333V229.262ZM341.396 229.262H357.458V245.354H341.396V229.262ZM357.458 213.17H373.521V229.262H357.458V213.17ZM357.458 229.262H373.521V245.354H357.458V229.262ZM357.458 245.354H373.521V261.446H357.458V245.354ZM357.458 261.446H373.521V277.538H357.458V261.446ZM357.458 277.538H373.521V293.63H357.458V277.538ZM357.458 293.63H373.521V309.723H357.458V293.63ZM357.458 309.723H373.521V325.815H357.458V309.723ZM357.458 325.815H373.521V341.907H357.458V325.815ZM341.396 325.815H357.458V341.907H341.396V325.815ZM341.396 309.723H357.458V325.815H341.396V309.723ZM341.396 293.63H357.458V309.723H341.396V293.63ZM341.396 277.538H357.458V293.63H341.396V277.538ZM341.396 261.446H357.458V277.538H341.396V261.446ZM341.396 245.354H357.458V261.446H341.396V245.354ZM325.333 309.723H341.396V325.815H325.333V309.723ZM325.333 325.815H341.396V341.907H325.333V325.815ZM341.396 341.907H357.458V357.999H341.396V341.907ZM325.333 341.907H341.396V357.999H325.333V341.907ZM309.271 341.907H325.333V357.999H309.271V341.907ZM309.271 325.815H325.333V341.907H309.271V325.815ZM293.208 341.907H309.271V357.999H293.208V341.907ZM277.146 341.907H293.208V357.999H277.146V341.907ZM277.146 325.815H293.208V341.907H277.146V325.815ZM293.208 325.815H309.271V341.907H293.208V325.815ZM277.146 309.723H293.208V325.815H277.146V309.723ZM261.083 325.815H277.146V341.907H261.083V325.815ZM261.083 309.723H277.146V325.815H261.083V309.723ZM261.083 293.63H277.146V309.723H261.083V293.63ZM261.083 277.538H277.146V293.63H261.083V277.538ZM261.083 261.446H277.146V277.538H261.083V261.446ZM261.083 245.354H277.146V261.446H261.083V245.354ZM261.083 229.262H277.146V245.354H261.083V229.262ZM277.146 229.262H293.208V245.354H277.146V229.262ZM261.083 213.17H277.146V229.262H261.083V213.17ZM277.146 245.354H293.208V261.446H277.146V245.354ZM277.146 261.446H293.208V277.538H277.146V261.446ZM277.146 277.538H293.208V293.63H277.146V277.538ZM277.146 293.63H293.208V309.723H277.146V293.63ZM261.083 341.907H277.146V357.999H261.083V341.907ZM261.083 197.078H277.146V213.17H261.083V197.078Z"
			fill="black" />
		<path
			d="M389.625 197.078H405.688V213.17H389.625V197.078ZM405.688 197.078H421.75V213.17H405.688V197.078ZM405.688 213.17H421.75V229.262H405.688V213.17ZM405.688 229.262H421.75V245.354H405.688V229.262ZM405.688 245.354H421.75V261.446H405.688V245.354ZM389.625 245.354H405.688V261.446H389.625V245.354ZM389.625 229.262H405.688V245.354H389.625V229.262ZM389.625 213.17H405.688V229.262H389.625V213.17ZM389.625 261.446H405.688V277.538H389.625V261.446ZM389.625 277.538H405.688V293.63H389.625V277.538ZM389.625 293.63H405.688V309.723H389.625V293.63ZM405.688 277.538H421.75V293.63H405.688V277.538ZM405.688 261.446H421.75V277.538H405.688V261.446ZM405.688 293.63H421.75V309.723H405.688V293.63ZM405.688 309.723H421.75V325.815H405.688V309.723ZM389.625 325.815H405.688V341.907H389.625V325.815ZM389.625 309.723H405.688V325.815H389.625V309.723ZM389.625 341.907H405.688V357.999H389.625V341.907ZM405.688 341.907H421.75V357.999H405.688V341.907ZM405.688 325.815H421.75V341.907H405.688V325.815ZM421.75 341.907H437.813V357.999H421.75V341.907ZM437.813 341.907H453.875V357.999H437.813V341.907ZM453.875 341.907H469.938V357.999H453.875V341.907ZM453.875 325.815H469.938V341.907H453.875V325.815ZM437.813 325.815H453.875V341.907H437.813V325.815ZM421.75 325.815H437.813V341.907H421.75V325.815ZM421.75 197.078H437.813V213.17H421.75V197.078ZM437.813 197.078H453.875V213.17H437.813V197.078ZM453.875 197.078H469.938V213.17H453.875V197.078ZM469.938 197.078H486V213.17H469.938V197.078ZM453.875 213.17H469.938V229.262H453.875V213.17ZM437.813 213.17H453.875V229.262H437.813V213.17ZM421.75 213.17H437.813V229.262H421.75V213.17ZM421.75 277.538H437.813V293.63H421.75V277.538ZM437.813 261.446H453.875V277.538H437.813V261.446ZM421.75 261.446H437.813V277.538H421.75V261.446ZM437.813 277.538H453.875V293.63H437.813V277.538ZM469.938 213.17H486V229.262H469.938V213.17ZM469.938 325.815H486V341.907H469.938V325.815ZM469.938 341.907H486V357.999H469.938V341.907ZM453.875 261.446H469.938V277.538H453.875V261.446ZM453.875 277.538H469.938V293.63H453.875V277.538Z"
			fill="black" />
		<path
			d="M145.583 16.6708H161.646V32.7629H145.583V16.6708ZM209.833 16.6708H225.896V32.7629H209.833V16.6708ZM209.833 32.7629H225.896V48.855H209.833V32.7629ZM225.896 16.6708H241.958V32.7629H225.896V16.6708ZM225.896 32.7629H241.958V48.855H225.896V32.7629ZM225.896 48.855H241.958V64.9472H225.896V48.855ZM225.896 64.9472H241.958V81.0393H225.896V64.9472ZM225.896 81.0393H241.958V97.1315H225.896V81.0393ZM225.896 97.1315H241.958V113.224H225.896V97.1315ZM225.896 113.224H241.958V129.316H225.896V113.224ZM225.896 129.316H241.958V145.408H225.896V129.316ZM209.833 129.316H225.896V145.408H209.833V129.316ZM209.833 113.224H225.896V129.316H209.833V113.224ZM209.833 97.1315H225.896V113.224H209.833V97.1315ZM209.833 81.0393H225.896V97.1315H209.833V81.0393ZM209.833 64.9472H225.896V81.0393H209.833V64.9472ZM209.833 48.855H225.896V64.9472H209.833V48.855ZM193.771 113.224H209.833V129.316H193.771V113.224ZM193.771 129.316H209.833V145.408H193.771V129.316ZM209.833 145.408H225.896V161.5H209.833V145.408ZM193.771 145.408H209.833V161.5H193.771V145.408ZM177.708 145.408H193.771V161.5H177.708V145.408ZM177.708 129.316H193.771V145.408H177.708V129.316ZM161.646 145.408H177.708V161.5H161.646V145.408ZM145.583 145.408H161.646V161.5H145.583V145.408ZM145.583 129.316H161.646V145.408H145.583V129.316ZM161.646 129.316H177.708V145.408H161.646V129.316ZM161.646 113.224H177.708V129.316H161.646V113.224ZM145.583 113.224H161.646V129.316H145.583V113.224ZM129.521 129.316H145.583V145.408H129.521V129.316ZM129.521 113.224H145.583V129.316H129.521V113.224ZM129.521 97.1315H145.583V113.224H129.521V97.1315ZM129.521 81.0393H145.583V97.1315H129.521V81.0393ZM129.521 64.9472H145.583V81.0393H129.521V64.9472ZM129.521 48.855H145.583V64.9472H129.521V48.855ZM129.521 32.7629H145.583V48.855H129.521V32.7629ZM145.583 32.7629H161.646V48.855H145.583V32.7629ZM129.521 16.6708H145.583V32.7629H129.521V16.6708ZM145.583 48.855H161.646V64.9472H145.583V48.855ZM145.583 64.9472H161.646V81.0393H145.583V64.9472ZM145.583 81.0393H161.646V97.1315H145.583V81.0393ZM145.583 97.1315H161.646V113.224H145.583V97.1315ZM129.521 0.578644H145.583V16.6708H129.521V0.578644ZM145.583 0.578644H161.646V16.6708H145.583V0.578644ZM209.833 0.578644H225.896V16.6708H209.833V0.578644ZM225.896 0.578644H241.958V16.6708H225.896V0.578644Z"
			fill="#2446F9" />
		<path
			d="M290.188 16.6708H306.25V32.7629H290.188V16.6708ZM306.25 16.6708H322.313V32.7629H306.25V16.6708ZM306.25 0.578644H322.313V16.6708H306.25V0.578644ZM322.313 16.6708H338.375V32.7629H322.313V16.6708ZM322.313 32.7629H338.375V48.855H322.313V32.7629ZM338.375 32.7629H354.438V48.855H338.375V32.7629ZM306.25 32.7629H322.313V48.855H306.25V32.7629ZM290.188 32.7629H306.25V48.855H290.188V32.7629ZM274.125 32.7629H290.188V48.855H274.125V32.7629ZM274.125 48.855H290.188V64.9472H274.125V48.855ZM258.063 48.855H274.125V64.9472H258.063V48.855ZM290.188 48.855H306.25V64.9472H290.188V48.855ZM274.125 64.9472H290.188V81.0393H274.125V64.9472ZM274.125 81.0393H290.188V97.1315H274.125V81.0393ZM274.125 97.1315H290.188V113.224H274.125V97.1315ZM290.188 97.1315H306.25V113.224H290.188V97.1315ZM306.25 97.1315H322.313V113.224H306.25V97.1315ZM322.313 97.1315H338.375V113.224H322.313V97.1315ZM338.375 97.1315H354.438V113.224H338.375V97.1315ZM354.438 97.1315H370.5V113.224H354.438V97.1315ZM354.438 81.0393H370.5V97.1315H354.438V81.0393ZM354.438 64.9472H370.5V81.0393H354.438V64.9472ZM354.438 48.855H370.5V64.9472H354.438V48.855ZM338.375 48.855H354.438V64.9472H338.375V48.855ZM322.313 48.855H338.375V64.9472H322.313V48.855ZM338.375 64.9472H354.438V81.0393H338.375V64.9472ZM338.375 81.0393H354.438V97.1315H338.375V81.0393ZM338.375 113.224H354.438V129.316H338.375V113.224ZM354.438 113.224H370.5V129.316H354.438V113.224ZM354.438 129.316H370.5V145.408H354.438V129.316ZM354.438 145.408H370.5V161.5H354.438V145.408ZM338.375 145.408H354.438V161.5H338.375V145.408ZM338.375 129.316H354.438V145.408H338.375V129.316ZM322.313 113.224H338.375V129.316H322.313V113.224ZM306.25 113.224H322.313V129.316H306.25V113.224ZM290.188 113.224H306.25V129.316H290.188V113.224ZM274.125 113.224H290.188V129.316H274.125V113.224ZM274.125 129.316H290.188V145.408H274.125V129.316ZM274.125 145.408H290.188V161.5H274.125V145.408ZM258.063 145.408H274.125V161.5H258.063V145.408ZM258.063 129.316H274.125V145.408H258.063V129.316ZM258.063 113.224H274.125V129.316H258.063V113.224ZM258.063 97.1315H274.125V113.224H258.063V97.1315ZM258.063 81.0393H274.125V97.1315H258.063V81.0393ZM258.063 64.9472H274.125V81.0393H258.063V64.9472Z"
			fill="#FADB1F" />
	</g>
	<defs>
		<filter id="filter0_d_38_7" x="0" y="0.578613" width="490" height="384.42"
			filterUnits="userSpaceOnUse" color-interpolation-filters="sRGB">
			<feFlood flood-opacity="0" result="BackgroundImageFix" />
			<feColorMatrix in="SourceAlpha" type="matrix" values="0 0 0 0 0 0 0 0 0 0 0 0 0 0 0 0 0 0 127 0"
				result="hardAlpha" />
			<feOffset dy="23" />
			<feGaussianBlur stdDeviation="2" />
			<feComposite in2="hardAlpha" operator="out" />
			<feColorMatrix type="matrix" values="0 0 0 0 0 0 0 0 0 0 0 0 0 0 0 0 0 0 0.25 0" />
			<feBlend mode="normal" in2="BackgroundImageFix" result="effect1_dropShadow_38_7" />
			<feBlend mode="normal" in="SourceGraphic" in2="effect1_dropShadow_38_7" result="shape" />
		</filter>
	</defs>
</svg>
